<svg width="107" height="93" viewBox="0 0 107 93" fill="none" xmlns="http://www.w3.org/2000/svg">
<g clip-path="url(#clip0_1_5)">
<mask id="mask0_1_5" style="mask-type:luminance" maskUnits="userSpaceOnUse" x="0" y="0" width="107" height="93">
<path d="M107 0H0V93H107V0Z" fill="white"/>
</mask>
<g mask="url(#mask0_1_5)">
<path d="M53.5 0.6185C24.1135 0.6185 0.207001 24.5639 0.207001 53.998C0.207001 83.431 24.8615 92.583 54.248 92.583C83.6346 92.583 106.793 83.431 106.793 53.998C106.793 24.5639 82.8865 0.6185 53.5 0.6185ZM54.248 90.615C25.9448 90.615 2.1704 82.3457 2.1704 53.998C2.1704 25.6489 25.1968 2.5863 53.5 2.5863C81.8032 2.5863 104.83 25.6489 104.83 53.998C104.83 82.3457 82.5513 90.615 54.248 90.615Z" fill="#FFD166"/>
<path d="M53.5 5.0196C26.5366 5.0196 4.59991 26.9908 4.59991 53.9992C4.59991 81.0038 27.2834 86.64 54.248 86.64C81.2127 86.64 102.4 81.0038 102.4 53.9992C102.4 26.9908 80.4634 5.0196 53.5 5.0196ZM54.248 84.672C28.3667 84.672 6.56331 79.9188 6.56331 53.9992C6.56331 28.0746 27.6187 6.9874 53.5 6.9874C79.3801 6.9874 100.437 28.0746 100.437 53.9992C100.437 79.9175 80.1281 84.672 54.248 84.672Z" fill="#FFD166"/>
<path d="M53.5 9.4194C28.9585 9.4194 8.99408 29.4178 8.99408 53.9979C8.99408 78.5768 29.7078 81.1958 54.248 81.1958C78.7882 81.1958 98.006 78.5768 98.006 53.9979C98.006 29.4165 78.0415 9.4194 53.5 9.4194ZM54.248 79.2268C30.7899 79.2268 10.9575 77.4918 10.9575 53.9967C10.9575 30.5003 30.0418 11.3859 53.5013 11.3859C76.9594 11.3859 96.044 30.5003 96.044 53.9967C96.042 77.4918 77.7062 79.2268 54.248 79.2268Z" fill="#FFD166"/>
<path d="M53.5 13.8193C31.3817 13.8193 13.3883 31.8422 13.3883 53.9954C13.3883 76.1485 31.7767 77.1458 53.8962 77.1458C76.0133 77.1458 93.612 76.1485 93.612 53.9954C93.612 31.8422 75.6183 13.8193 53.5 13.8193ZM53.8962 75.1793C32.8612 75.1793 15.3517 75.0648 15.3517 53.9967C15.3517 32.9285 32.465 15.7871 53.5 15.7871C74.5337 15.7871 91.648 32.9273 91.648 53.9954C91.648 75.0635 74.93 75.1793 53.8962 75.1793Z" fill="#FFD166"/>
<path d="M53.5 18.2205C33.8048 18.2205 17.7812 34.2693 17.7812 53.9955C17.7812 73.7216 34.1998 73.9811 53.895 73.9811C73.5901 73.9811 89.2188 73.7216 89.2188 53.9955C89.2188 34.2693 73.1952 18.2205 53.5 18.2205ZM53.895 72.0133C35.2831 72.0133 19.7447 72.6366 19.7447 53.9955C19.7447 35.3543 34.8881 20.1882 53.5 20.1882C72.1119 20.1882 87.2553 35.3543 87.2553 53.9955C87.2553 72.6366 72.5068 72.0133 53.895 72.0133Z" fill="#FFD166"/>
<path d="M53.5 22.6202C36.2267 22.6202 22.1742 36.6936 22.1742 53.9954C22.1742 71.2946 36.2267 70.4207 53.5 70.4207C70.772 70.4207 84.8246 71.2946 84.8246 53.9954C84.8246 36.6949 70.7733 22.6202 53.5 22.6202ZM53.5 68.4542C37.31 68.4542 24.1376 70.2121 24.1376 53.9967C24.1376 37.7812 37.31 24.588 53.5 24.588C69.69 24.588 82.8611 37.7799 82.8611 53.9954C82.8611 70.2108 69.69 68.4542 53.5 68.4542Z" fill="#FFD166"/>
<path d="M53.5013 27.0227C38.6512 27.0227 26.5684 39.122 26.5684 53.9955C26.5684 68.8664 38.6499 67.5206 53.5013 67.5206C68.3501 67.5206 80.4316 68.8677 80.4316 53.9955C80.4316 39.122 68.3501 27.0227 53.5013 27.0227ZM53.5013 65.5529C39.7332 65.5529 28.5318 67.7839 28.5318 53.9955C28.5318 40.207 39.7332 28.9905 53.5013 28.9905C67.2681 28.9905 78.4682 40.207 78.4682 53.9955C78.4682 67.7839 67.2681 65.5529 53.5013 65.5529Z" fill="#FFD166"/>
<path d="M53.5013 31.4225C41.0743 31.4225 30.9639 41.5489 30.9639 53.9954C30.9639 66.4419 41.0743 65.4269 53.5013 65.4269C65.9269 65.4269 76.0362 66.4419 76.0362 53.9954C76.0362 41.5489 65.9269 31.4225 53.5013 31.4225ZM53.5013 63.4604C63.5051 63.4604 71.6432 64.0162 71.6432 53.9967C71.6432 43.9771 63.5051 35.8236 53.5013 35.8236C43.4962 35.8236 35.3555 43.9771 35.3555 53.9967C35.3555 64.0162 43.4962 63.4604 53.5013 63.4604C42.1564 63.4604 32.9273 65.3569 32.9273 53.9967C32.9273 42.6326 42.1576 33.3915 53.5013 33.3915C64.8449 33.3915 74.0727 42.6339 74.0727 53.9967C74.0727 65.3569 64.8449 63.4604 53.5013 63.4604ZM37.3202 53.9954C37.3202 45.0596 44.5795 37.7901 53.5025 37.7901C62.423 37.7901 69.6811 45.0596 69.6811 53.9954C69.6811 62.9312 62.423 61.4926 53.5025 61.4926C44.5795 61.4926 37.3202 62.9325 37.3202 53.9954Z" fill="#FFD166"/>
<path d="M67.249 53.9955C67.249 46.4016 61.0832 40.2235 53.5013 40.2235C45.9181 40.2235 39.751 46.4016 39.751 53.9955C39.751 61.5893 45.9181 61.4926 53.5013 61.4926C61.0832 61.4926 67.249 61.5893 67.249 53.9955ZM53.5013 59.5248C47.0027 59.5248 41.7144 60.5056 41.7144 53.9955C41.7144 47.4854 47.0027 42.1913 53.5013 42.1913C59.9999 42.1913 65.2856 47.4866 65.2856 53.9955C65.2856 60.5043 59.9999 59.5248 53.5013 59.5248Z" fill="#FFD166"/>
<path d="M53.5025 44.6246C48.3425 44.6246 44.1439 48.8286 44.1439 53.9955C44.1439 59.1623 48.3425 59.5248 53.5025 59.5248C58.6613 59.5248 62.8561 59.1636 62.8561 53.9955C62.8561 48.8273 58.66 44.6246 53.5025 44.6246ZM53.5025 57.5571C49.4246 57.5571 46.1073 58.0773 46.1073 53.9955C46.1073 49.9111 49.4246 46.5924 53.5025 46.5924C57.578 46.5924 60.8927 49.9111 60.8927 53.9955C60.8927 58.0773 57.578 57.5571 53.5025 57.5571Z" fill="#FFD166"/>
<path d="M58.4619 53.9954C58.4619 51.2555 56.2368 49.0244 53.5025 49.0244C50.7644 49.0244 48.5381 51.2555 48.5381 53.9954C48.5381 56.7353 50.7644 57.557 53.5025 57.557C56.2368 57.557 58.4619 56.7366 58.4619 53.9954ZM53.5025 56.9999C51.8477 56.9999 50.5015 55.6503 50.5015 53.9967C50.5015 52.3392 51.8477 50.9935 53.5025 50.9935C55.1548 50.9935 56.4985 52.3405 56.4985 53.9967C56.4985 55.6503 55.1548 56.9999 53.5025 56.9999Z" fill="#FFD166"/>
</g>
</g>
<defs>
<clipPath id="clip0_1_5">
<rect width="107" height="93" fill="white"/>
</clipPath>
</defs>
</svg>
